<svg width="26" height="26" viewBox="0 0 26 26" fill="none" xmlns="http://www.w3.org/2000/svg">
<path d="M13 0.75C14.6086 0.75 16.2013 1.06707 17.6875 1.68262C19.1737 2.29824 20.5246 3.20037 21.6621 4.33789C22.7996 5.47541 23.7018 6.82626 24.3174 8.3125C24.9329 9.79866 25.25 11.3914 25.25 13C25.25 15.4228 24.5316 17.7912 23.1855 19.8057C21.8395 21.8202 19.9259 23.3902 17.6875 24.3174C15.4492 25.2444 12.9865 25.4872 10.6104 25.0146C8.23409 24.542 6.05108 23.3753 4.33789 21.6621C2.6247 19.9489 1.45802 17.7659 0.985352 15.3896C0.512756 13.0135 0.755563 10.5508 1.68262 8.3125C2.60979 6.07411 4.17983 4.1605 6.19434 2.81445C8.20882 1.46844 10.5772 0.750001 13 0.75ZM16.5781 4.36133C14.8697 3.65369 12.9895 3.46931 11.1758 3.83008C9.36214 4.19088 7.69624 5.0811 6.38867 6.38867C5.0811 7.69624 4.19087 9.36214 3.83008 11.1758C3.46931 12.9895 3.65369 14.8697 4.36133 16.5781C5.06901 18.2866 6.26806 19.747 7.80566 20.7744C9.34321 21.8017 11.1508 22.3496 13 22.3496C15.4798 22.3496 17.8579 21.3648 19.6113 19.6113C21.3648 17.8579 22.3496 15.4798 22.3496 13C22.3496 11.1508 21.8017 9.34321 20.7744 7.80566C19.747 6.26806 18.2866 5.06901 16.5781 4.36133ZM16.9932 7.95605C17.3761 7.90445 17.764 8.00697 18.0713 8.24121C18.3785 8.47548 18.5801 8.8222 18.6318 9.20508C18.6834 9.58802 18.5809 9.9759 18.3467 10.2832L12.8633 17.4834L12.8623 17.4844C12.7273 17.6598 12.5539 17.8024 12.3555 17.9004C12.157 17.9984 11.9382 18.0492 11.7168 18.0498L11.7158 18.0488C11.4961 18.0498 11.2791 18.0015 11.0811 17.9062C10.8827 17.8108 10.7088 17.6717 10.5723 17.499L10.5713 17.498L7.65527 13.7656H7.6543C7.53733 13.6153 7.45099 13.4434 7.40039 13.2598C7.34978 13.076 7.33582 12.8835 7.35938 12.6943C7.38295 12.5053 7.444 12.3229 7.53809 12.1572C7.63222 11.9915 7.75782 11.8456 7.9082 11.7285C8.0586 11.6114 8.23128 11.5252 8.41504 11.4746C8.59866 11.4241 8.79051 11.4101 8.97949 11.4336C9.16856 11.4572 9.35093 11.5182 9.5166 11.6123C9.64089 11.6829 9.75444 11.7708 9.85254 11.874L9.94531 11.9824L9.94629 11.9834L11.7012 14.2568L15.7383 8.91797H15.7227L16.0293 8.5166C16.2636 8.20934 16.6102 8.00772 16.9932 7.95605Z" fill="#9B8FFA" stroke="#9B8FFA" stroke-width="0.5"/>
</svg>
