<svg width="420" height="596" viewBox="0 0 420 596" fill="none" xmlns="http://www.w3.org/2000/svg">
<path d="M142.917 136H13.4828C9.90691 136 6.47752 137.421 3.94901 139.949C1.4205 142.478 0 145.907 0 149.483V257.345C0 260.921 1.4205 264.35 3.94901 266.879C6.47752 269.407 9.90691 270.828 13.4828 270.828H142.917C146.493 270.828 149.922 269.407 152.451 266.879C154.979 264.35 156.4 260.921 156.4 257.345V149.483C156.4 145.907 154.979 142.478 152.451 139.949C149.922 137.421 146.493 136 142.917 136ZM151.007 257.345C151.007 259.49 150.155 261.548 148.637 263.065C147.12 264.582 145.063 265.434 142.917 265.434H13.4828C11.3372 265.434 9.27961 264.582 7.76251 263.065C6.2454 261.548 5.3931 259.49 5.3931 257.345V162.966H151.007V257.345ZM5.3931 157.572V149.483C5.3931 147.337 6.2454 145.28 7.76251 143.763C9.27961 142.245 11.3372 141.393 13.4828 141.393H142.917C145.063 141.393 147.12 142.245 148.637 143.763C150.155 145.28 151.007 147.337 151.007 149.483V157.572H5.3931ZM140.221 149.483C140.221 150.016 140.063 150.537 139.766 150.981C139.47 151.424 139.049 151.77 138.556 151.974C138.063 152.178 137.521 152.232 136.998 152.127C136.475 152.023 135.994 151.767 135.617 151.39C135.24 151.012 134.983 150.532 134.879 150.009C134.775 149.486 134.829 148.944 135.033 148.451C135.237 147.958 135.583 147.537 136.026 147.241C136.469 146.944 136.991 146.786 137.524 146.786C138.239 146.786 138.925 147.07 139.431 147.576C139.937 148.082 140.221 148.768 140.221 149.483ZM132.131 149.483C132.131 150.016 131.973 150.537 131.677 150.981C131.38 151.424 130.959 151.77 130.466 151.974C129.974 152.178 129.431 152.232 128.908 152.127C128.385 152.023 127.905 151.767 127.528 151.39C127.151 151.012 126.894 150.532 126.79 150.009C126.686 149.486 126.739 148.944 126.943 148.451C127.147 147.958 127.493 147.537 127.936 147.241C128.38 146.944 128.901 146.786 129.434 146.786C130.15 146.786 130.836 147.07 131.341 147.576C131.847 148.082 132.131 148.768 132.131 149.483ZM124.041 149.483C124.041 150.016 123.883 150.537 123.587 150.981C123.291 151.424 122.869 151.77 122.377 151.974C121.884 152.178 121.342 152.232 120.819 152.127C120.296 152.023 119.815 151.767 119.438 151.39C119.061 151.012 118.804 150.532 118.7 150.009C118.596 149.486 118.649 148.944 118.854 148.451C119.058 147.958 119.403 147.537 119.847 147.241C120.29 146.944 120.811 146.786 121.345 146.786C122.06 146.786 122.746 147.07 123.252 147.576C123.757 148.082 124.041 148.768 124.041 149.483ZM83.5931 195.324H137.524C138.239 195.324 138.925 195.04 139.431 194.534C139.937 194.029 140.221 193.343 140.221 192.628V171.055C140.221 170.34 139.937 169.654 139.431 169.148C138.925 168.643 138.239 168.359 137.524 168.359H83.5931C82.8779 168.359 82.192 168.643 81.6863 169.148C81.1806 169.654 80.8965 170.34 80.8965 171.055V192.628C80.8965 193.343 81.1806 194.029 81.6863 194.534C82.192 195.04 82.8779 195.324 83.5931 195.324ZM86.2896 173.752H134.828V189.931H86.2896V173.752ZM18.8759 227.683H72.8069C73.5221 227.683 74.2079 227.399 74.7136 226.893C75.2193 226.387 75.5034 225.701 75.5034 224.986V203.414C75.5034 202.699 75.2193 202.013 74.7136 201.507C74.2079 201.001 73.5221 200.717 72.8069 200.717H18.8759C18.1607 200.717 17.4748 201.001 16.9691 201.507C16.4634 202.013 16.1793 202.699 16.1793 203.414V224.986C16.1793 225.701 16.4634 226.387 16.9691 226.893C17.4748 227.399 18.1607 227.683 18.8759 227.683ZM21.5724 206.11H70.1103V222.29H21.5724V206.11ZM83.5931 260.041H137.524C138.239 260.041 138.925 259.757 139.431 259.252C139.937 258.746 140.221 258.06 140.221 257.345V235.772C140.221 235.057 139.937 234.371 139.431 233.866C138.925 233.36 138.239 233.076 137.524 233.076H83.5931C82.8779 233.076 82.192 233.36 81.6863 233.866C81.1806 234.371 80.8965 235.057 80.8965 235.772V257.345C80.8965 258.06 81.1806 258.746 81.6863 259.252C82.192 259.757 82.8779 260.041 83.5931 260.041ZM86.2896 238.469H134.828V254.648H86.2896V238.469ZM16.1793 176.448C16.1793 175.733 16.4634 175.047 16.9691 174.542C17.4748 174.036 18.1607 173.752 18.8759 173.752H72.8069C73.5221 173.752 74.2079 174.036 74.7136 174.542C75.2193 175.047 75.5034 175.733 75.5034 176.448C75.5034 177.163 75.2193 177.849 74.7136 178.355C74.2079 178.861 73.5221 179.145 72.8069 179.145H18.8759C18.1607 179.145 17.4748 178.861 16.9691 178.355C16.4634 177.849 16.1793 177.163 16.1793 176.448ZM16.1793 187.234C16.1793 186.519 16.4634 185.833 16.9691 185.328C17.4748 184.822 18.1607 184.538 18.8759 184.538H72.8069C73.5221 184.538 74.2079 184.822 74.7136 185.328C75.2193 185.833 75.5034 186.519 75.5034 187.234C75.5034 187.95 75.2193 188.636 74.7136 189.141C74.2079 189.647 73.5221 189.931 72.8069 189.931H18.8759C18.1607 189.931 17.4748 189.647 16.9691 189.141C16.4634 188.636 16.1793 187.95 16.1793 187.234ZM80.8965 208.807C80.8965 208.092 81.1806 207.406 81.6863 206.9C82.192 206.394 82.8779 206.11 83.5931 206.11H137.524C138.239 206.11 138.925 206.394 139.431 206.9C139.937 207.406 140.221 208.092 140.221 208.807C140.221 209.522 139.937 210.208 139.431 210.714C138.925 211.219 138.239 211.503 137.524 211.503H83.5931C82.8779 211.503 82.192 211.219 81.6863 210.714C81.1806 210.208 80.8965 209.522 80.8965 208.807ZM80.8965 219.593C80.8965 218.878 81.1806 218.192 81.6863 217.686C82.192 217.181 82.8779 216.897 83.5931 216.897H137.524C138.239 216.897 138.925 217.181 139.431 217.686C139.937 218.192 140.221 218.878 140.221 219.593C140.221 220.308 139.937 220.994 139.431 221.5C138.925 222.006 138.239 222.29 137.524 222.29H83.5931C82.8779 222.29 82.192 222.006 81.6863 221.5C81.1806 220.994 80.8965 220.308 80.8965 219.593ZM16.1793 241.166C16.1793 240.45 16.4634 239.764 16.9691 239.259C17.4748 238.753 18.1607 238.469 18.8759 238.469H72.8069C73.5221 238.469 74.2079 238.753 74.7136 239.259C75.2193 239.764 75.5034 240.45 75.5034 241.166C75.5034 241.881 75.2193 242.567 74.7136 243.072C74.2079 243.578 73.5221 243.862 72.8069 243.862H18.8759C18.1607 243.862 17.4748 243.578 16.9691 243.072C16.4634 242.567 16.1793 241.881 16.1793 241.166ZM16.1793 251.952C16.1793 251.237 16.4634 250.551 16.9691 250.045C17.4748 249.539 18.1607 249.255 18.8759 249.255H72.8069C73.5221 249.255 74.2079 249.539 74.7136 250.045C75.2193 250.551 75.5034 251.237 75.5034 251.952C75.5034 252.667 75.2193 253.353 74.7136 253.858C74.2079 254.364 73.5221 254.648 72.8069 254.648H18.8759C18.1607 254.648 17.4748 254.364 16.9691 253.858C16.4634 253.353 16.1793 252.667 16.1793 251.952Z" fill="#897CE9" fill-opacity="0.3"/>
<path d="M123.333 395.143V383.714H129C132.13 383.714 134.667 381.156 134.667 378C134.667 374.844 132.13 372.286 129 372.286H77.7247L76.3892 368.476C72.421 357.154 61.7715 349.429 49.6667 349.429C34.0186 349.429 21.3333 362.22 21.3333 378C21.3333 393.78 34.0186 406.571 49.6667 406.571C61.7715 406.571 72.421 398.846 76.3892 387.524L77.7247 383.714H112V395.143H123.333ZM134.667 406.571H100.667V395.143H85.5162C79.0497 408.894 65.2169 418 49.6667 418C27.7594 418 10 400.091 10 378C10 355.909 27.7594 338 49.6667 338C65.2169 338 79.0497 347.106 85.5162 360.857H129C138.389 360.857 146 368.532 146 378C146 385.464 141.269 391.814 134.667 394.167V406.571ZM49.6667 389.429C55.9259 389.429 61 384.312 61 378C61 371.688 55.9259 366.571 49.6667 366.571C43.4074 366.571 38.3333 371.688 38.3333 378C38.3333 384.312 43.4074 389.429 49.6667 389.429Z" fill="#897CE9" fill-opacity="0.3"/>
<path d="M59.7119 497.188C39.0068 497.188 22.1626 514.031 22.1626 534.735C22.1626 544.766 26.0678 554.195 33.1584 561.287C40.2503 568.379 49.6801 572.285 59.7115 572.285C69.739 572.285 79.1679 568.38 86.2607 561.287C93.3547 554.193 97.2608 544.765 97.2608 534.736C97.2611 514.032 80.4169 497.188 59.7119 497.188ZM82.9198 557.944C76.7197 564.143 68.478 567.559 59.7119 567.559C50.9427 567.559 42.6987 564.143 36.5008 557.946C30.3028 551.747 26.8894 543.506 26.8894 534.736C26.8894 516.639 41.615 501.916 59.7122 501.916C77.8103 501.916 92.535 516.639 92.535 534.737C92.5346 543.502 89.1209 551.745 82.9198 557.944Z" fill="#897CE9" fill-opacity="0.3"/>
<path d="M141.613 595.497L112.009 565.892L107.129 570.772L100.102 563.747C114.26 544.092 112.167 516.859 94.8789 499.568C85.4847 490.174 72.9943 485 59.7097 485C59.7088 485 59.7107 485 59.7088 485C46.4264 485 33.9348 490.174 24.544 499.567C5.15199 518.96 5.15199 550.513 24.544 569.903C41.8313 587.195 69.0642 589.287 88.7212 575.128L95.7491 582.153L90.8672 587.037L120.471 616.639C123.386 619.554 127.213 621.013 131.042 621.013C134.869 621.011 138.7 619.554 141.613 616.639C144.436 613.817 145.992 610.063 145.993 606.069C145.993 602.076 144.438 598.32 141.613 595.497ZM138.273 613.297C134.285 617.284 127.798 617.284 123.812 613.297L97.5498 587.037L104.778 579.805L101.436 576.463L99.0887 578.811L89.1262 568.852L87.4793 570.148C69.6018 584.2 43.9823 582.659 27.8858 566.562C10.3369 549.014 10.3369 520.459 27.8858 502.909C36.3864 494.408 47.6886 489.726 59.7107 489.726C71.7327 489.726 83.0362 494.409 91.5365 502.91C107.634 519.008 109.175 544.629 95.1213 562.507L93.8262 564.154L107.131 577.456L112.01 572.576L138.273 598.836C140.203 600.769 141.268 603.335 141.268 606.068C141.267 608.799 140.204 611.367 138.273 613.297Z" fill="#897CE9" fill-opacity="0.3"/>
<path d="M40.9665 515.992C35.9523 521.007 33.1909 527.664 33.1909 534.738H37.9174C37.9174 528.927 40.1871 523.456 44.3098 519.335C48.4313 515.213 53.8994 512.944 59.7096 512.944H59.7118V508.217C59.7118 508.217 59.7108 508.217 59.7096 508.217C52.6356 508.218 45.9798 510.979 40.9665 515.992Z" fill="#897CE9" fill-opacity="0.3"/>
<path d="M283.282 88.4H314.969C314.205 81.956 313.8 75.1023 313.8 68C313.8 60.8977 314.205 54.044 314.969 47.6H283.282C281.027 53.9807 279.8 60.847 279.8 68C279.8 75.153 281.027 82.0193 283.282 88.4ZM286.162 95.2C294.256 111.488 309.394 123.659 327.59 127.726C322.292 120.515 318.235 109.053 315.934 95.2H286.162ZM398.718 88.4C400.973 82.0193 402.2 75.153 402.2 68C402.2 60.847 400.973 53.9807 398.718 47.6H367.031C367.795 54.044 368.2 60.8977 368.2 68C368.2 75.1023 367.795 81.956 367.031 88.4H398.718ZM395.838 95.2H366.066C363.765 109.053 359.708 120.515 354.41 127.726C372.606 123.659 387.744 111.488 395.838 95.2ZM321.854 88.4H360.146C360.951 82.0242 361.4 75.1592 361.4 68C361.4 60.8408 360.951 53.9758 360.146 47.6H321.854C321.049 53.9758 320.6 60.8408 320.6 68C320.6 75.1592 321.049 82.0242 321.854 88.4ZM322.878 95.2C326.429 115.381 333.643 129.2 341 129.2C348.357 129.2 355.571 115.381 359.122 95.2H322.878ZM286.162 40.8H315.934C318.235 26.9475 322.292 15.4851 327.59 8.27361C309.394 12.3412 294.256 24.5117 286.162 40.8ZM395.838 40.8C387.744 24.5117 372.606 12.3412 354.41 8.27361C359.708 15.4851 363.765 26.9475 366.066 40.8H395.838ZM322.878 40.8H359.122C355.571 20.6188 348.357 6.8 341 6.8C333.643 6.8 326.429 20.6188 322.878 40.8ZM341 136C303.445 136 273 105.555 273 68C273 30.4446 303.445 0 341 0C378.555 0 409 30.4446 409 68C409 105.555 378.555 136 341 136Z" fill="#897CE9" fill-opacity="0.3"/>
<path fill-rule="evenodd" clip-rule="evenodd" d="M374.651 508.416C365.02 515.545 394.969 484.919 386.446 496.561C386.66 496.544 386.264 497.189 384.939 498.807C384.939 498.807 407.7 521.414 418.872 532.919C422.751 537.114 415.753 545.485 410.998 541.115C400.881 531.299 376.94 506.903 376.903 506.863L374.651 508.416Z" fill="#897CE9" fill-opacity="0.3"/>
<path d="M341.208 519.847C355.852 519.705 370.349 513.64 380.774 503.337C393.155 491.101 399.531 472.999 397.307 455.715C393.496 426.099 369.149 406 340.844 406C319.337 406 298.437 419.453 289.269 438.96C282.251 453.895 282.237 471.927 289.269 486.887C298.371 506.258 318.931 519.64 340.477 519.847C340.721 519.847 340.966 519.847 341.208 519.847ZM340.537 510.358C318.666 510.148 298.26 493.234 294.203 471.548C291.342 456.261 296.742 439.717 307.991 428.86C321.123 416.18 341.765 411.935 358.929 419.12C374.285 425.55 385.779 440.479 387.897 456.927C389.711 471.025 384.653 485.801 374.711 495.978C365.99 504.907 353.76 510.236 341.148 510.358C340.943 510.358 340.741 510.358 340.537 510.358Z" fill="#897CE9" fill-opacity="0.3"/>
<path d="M406.16 203H275.6C271.993 203 268.534 204.433 265.983 206.983C263.433 209.534 262 212.993 262 216.6V325.4C262 329.007 263.433 332.466 265.983 335.017C268.534 337.567 271.993 339 275.6 339H406.16C409.767 339 413.226 337.567 415.777 335.017C418.327 332.466 419.76 329.007 419.76 325.4V216.6C419.76 212.993 418.327 209.534 415.777 206.983C413.226 204.433 409.767 203 406.16 203ZM414.32 325.4C414.32 327.564 413.46 329.64 411.93 331.17C410.4 332.7 408.324 333.56 406.16 333.56H275.6C273.436 333.56 271.36 332.7 269.83 331.17C268.3 329.64 267.44 327.564 267.44 325.4V230.2H414.32V325.4ZM267.44 224.76V216.6C267.44 214.436 268.3 212.36 269.83 210.83C271.36 209.3 273.436 208.44 275.6 208.44H406.16C408.324 208.44 410.4 209.3 411.93 210.83C413.46 212.36 414.32 214.436 414.32 216.6V224.76H267.44ZM403.44 216.6C403.44 217.138 403.28 217.664 402.982 218.111C402.683 218.558 402.258 218.907 401.761 219.113C401.264 219.319 400.717 219.373 400.189 219.268C399.662 219.163 399.177 218.904 398.797 218.523C398.416 218.143 398.157 217.658 398.052 217.131C397.947 216.603 398.001 216.056 398.207 215.559C398.413 215.062 398.762 214.637 399.209 214.338C399.656 214.04 400.182 213.88 400.72 213.88C401.441 213.88 402.133 214.167 402.643 214.677C403.153 215.187 403.44 215.879 403.44 216.6ZM395.28 216.6C395.28 217.138 395.12 217.664 394.822 218.111C394.523 218.558 394.098 218.907 393.601 219.113C393.104 219.319 392.557 219.373 392.029 219.268C391.502 219.163 391.017 218.904 390.637 218.523C390.256 218.143 389.997 217.658 389.892 217.131C389.787 216.603 389.841 216.056 390.047 215.559C390.253 215.062 390.602 214.637 391.049 214.338C391.496 214.04 392.022 213.88 392.56 213.88C393.281 213.88 393.973 214.167 394.483 214.677C394.993 215.187 395.28 215.879 395.28 216.6ZM387.12 216.6C387.12 217.138 386.96 217.664 386.662 218.111C386.363 218.558 385.938 218.907 385.441 219.113C384.944 219.319 384.397 219.373 383.869 219.268C383.342 219.163 382.857 218.904 382.477 218.523C382.096 218.143 381.837 217.658 381.732 217.131C381.627 216.603 381.681 216.056 381.887 215.559C382.093 215.062 382.442 214.637 382.889 214.338C383.336 214.04 383.862 213.88 384.4 213.88C385.121 213.88 385.813 214.167 386.323 214.677C386.833 215.187 387.12 215.879 387.12 216.6ZM281.04 262.84H302.8C303.521 262.84 304.213 262.553 304.723 262.043C305.233 261.533 305.52 260.841 305.52 260.12V238.36C305.52 237.639 305.233 236.947 304.723 236.437C304.213 235.927 303.521 235.64 302.8 235.64H281.04C280.319 235.64 279.627 235.927 279.117 236.437C278.607 236.947 278.32 237.639 278.32 238.36V260.12C278.32 260.841 278.607 261.533 279.117 262.043C279.627 262.553 280.319 262.84 281.04 262.84ZM283.76 241.08H300.08V257.4H283.76V241.08ZM281.04 295.48H302.8C303.521 295.48 304.213 295.193 304.723 294.683C305.233 294.173 305.52 293.481 305.52 292.76V271C305.52 270.279 305.233 269.587 304.723 269.077C304.213 268.567 303.521 268.28 302.8 268.28H281.04C280.319 268.28 279.627 268.567 279.117 269.077C278.607 269.587 278.32 270.279 278.32 271V292.76C278.32 293.481 278.607 294.173 279.117 294.683C279.627 295.193 280.319 295.48 281.04 295.48ZM283.76 273.72H300.08V290.04H283.76V273.72ZM281.04 328.12H302.8C303.521 328.12 304.213 327.833 304.723 327.323C305.233 326.813 305.52 326.121 305.52 325.4V303.64C305.52 302.919 305.233 302.227 304.723 301.717C304.213 301.207 303.521 300.92 302.8 300.92H281.04C280.319 300.92 279.627 301.207 279.117 301.717C278.607 302.227 278.32 302.919 278.32 303.64V325.4C278.32 326.121 278.607 326.813 279.117 327.323C279.627 327.833 280.319 328.12 281.04 328.12ZM283.76 306.36H300.08V322.68H283.76V306.36ZM310.96 243.8C310.96 243.079 311.247 242.387 311.757 241.877C312.267 241.367 312.959 241.08 313.68 241.08H400.72C401.441 241.08 402.133 241.367 402.643 241.877C403.153 242.387 403.44 243.079 403.44 243.8C403.44 244.521 403.153 245.213 402.643 245.723C402.133 246.233 401.441 246.52 400.72 246.52H313.68C312.959 246.52 312.267 246.233 311.757 245.723C311.247 245.213 310.96 244.521 310.96 243.8ZM310.96 254.68C310.96 253.959 311.247 253.267 311.757 252.757C312.267 252.247 312.959 251.96 313.68 251.96H400.72C401.441 251.96 402.133 252.247 402.643 252.757C403.153 253.267 403.44 253.959 403.44 254.68C403.44 255.401 403.153 256.093 402.643 256.603C402.133 257.113 401.441 257.4 400.72 257.4H313.68C312.959 257.4 312.267 257.113 311.757 256.603C311.247 256.093 310.96 255.401 310.96 254.68ZM310.96 276.44C310.96 275.719 311.247 275.027 311.757 274.517C312.267 274.007 312.959 273.72 313.68 273.72H400.72C401.441 273.72 402.133 274.007 402.643 274.517C403.153 275.027 403.44 275.719 403.44 276.44C403.44 277.161 403.153 277.853 402.643 278.363C402.133 278.873 401.441 279.16 400.72 279.16H313.68C312.959 279.16 312.267 278.873 311.757 278.363C311.247 277.853 310.96 277.161 310.96 276.44ZM310.96 287.32C310.96 286.599 311.247 285.907 311.757 285.397C312.267 284.887 312.959 284.6 313.68 284.6H400.72C401.441 284.6 402.133 284.887 402.643 285.397C403.153 285.907 403.44 286.599 403.44 287.32C403.44 288.041 403.153 288.733 402.643 289.243C402.133 289.753 401.441 290.04 400.72 290.04H313.68C312.959 290.04 312.267 289.753 311.757 289.243C311.247 288.733 310.96 288.041 310.96 287.32ZM310.96 309.08C310.96 308.359 311.247 307.667 311.757 307.157C312.267 306.647 312.959 306.36 313.68 306.36H400.72C401.441 306.36 402.133 306.647 402.643 307.157C403.153 307.667 403.44 308.359 403.44 309.08C403.44 309.801 403.153 310.493 402.643 311.003C402.133 311.513 401.441 311.8 400.72 311.8H313.68C312.959 311.8 312.267 311.513 311.757 311.003C311.247 310.493 310.96 309.801 310.96 309.08ZM310.96 319.96C310.96 319.239 311.247 318.547 311.757 318.037C312.267 317.527 312.959 317.24 313.68 317.24H400.72C401.441 317.24 402.133 317.527 402.643 318.037C403.153 318.547 403.44 319.239 403.44 319.96C403.44 320.681 403.153 321.373 402.643 321.883C402.133 322.393 401.441 322.68 400.72 322.68H313.68C312.959 322.68 312.267 322.393 311.757 321.883C311.247 321.373 310.96 320.681 310.96 319.96Z" fill="#897CE9" fill-opacity="0.3"/>
</svg>
