<svg width="53" height="53" viewBox="0 0 53 53" fill="none" xmlns="http://www.w3.org/2000/svg">
<g filter="url(#filter0_d_110_274)">
<path d="M26.5 50C21.6544 50 16.9175 48.5631 12.8885 45.871C8.85953 43.1789 5.71931 39.3525 3.86496 34.8757C2.01062 30.399 1.52543 25.4728 2.47077 20.7203C3.41611 15.9678 5.74951 11.6023 9.17589 8.17589C12.6023 4.74951 16.9678 2.41611 21.7203 1.47077C26.4728 0.525434 31.399 1.01062 35.8757 2.86496C40.3525 4.71931 44.1789 7.85953 46.871 11.8885C49.5631 15.9175 51 20.6544 51 25.5C51 31.9978 48.4188 38.2295 43.8241 42.8241C39.2295 47.4188 32.9978 50 26.5 50ZM26.5 4.76924C22.3998 4.76924 18.3918 5.98508 14.9826 8.263C11.5735 10.5409 8.91634 13.7786 7.34728 17.5667C5.77821 21.3547 5.36768 25.523 6.16758 29.5444C6.96748 33.5658 8.94189 37.2596 11.8411 40.1589C14.7404 43.0581 18.4343 45.0325 22.4556 45.8324C26.477 46.6323 30.6453 46.2218 34.4333 44.6527C38.2214 43.0837 41.4591 40.4266 43.737 37.0174C46.0149 33.6082 47.2308 29.6002 47.2308 25.5C47.2308 20.0019 45.0466 14.7289 41.1589 10.8411C37.2711 6.95337 31.9981 4.76924 26.5 4.76924Z" fill="white"/>
<path d="M26.5 27.3846C24.6363 27.3846 22.8144 26.832 21.2648 25.7966C19.7152 24.7611 18.5074 23.2894 17.7942 21.5676C17.081 19.8458 16.8944 17.9511 17.258 16.1232C17.6216 14.2953 18.519 12.6163 19.8369 11.2984C21.1547 9.98059 22.8338 9.08313 24.6616 8.71954C26.4895 8.35595 28.3842 8.54256 30.1061 9.25577C31.8279 9.96898 33.2996 11.1768 34.335 12.7264C35.3704 14.276 35.9231 16.0978 35.9231 17.9616C35.9231 20.4607 34.9303 22.8575 33.1631 24.6247C31.396 26.3918 28.9992 27.3846 26.5 27.3846ZM26.5 12.3077C25.3818 12.3077 24.2887 12.6393 23.3589 13.2606C22.4291 13.8818 21.7045 14.7648 21.2765 15.7979C20.8486 16.831 20.7366 17.9678 20.9548 19.0646C21.1729 20.1613 21.7114 21.1687 22.5021 21.9594C23.2928 22.7501 24.3003 23.2886 25.397 23.5068C26.4937 23.7249 27.6305 23.6129 28.6636 23.185C29.6967 22.7571 30.5797 22.0324 31.201 21.1027C31.8223 20.1729 32.1538 19.0798 32.1538 17.9616C32.1538 16.4621 31.5582 15.024 30.4979 13.9637C29.4376 12.9034 27.9995 12.3077 26.5 12.3077Z" fill="white"/>
<path d="M44.4979 40.5769C44.2363 40.5787 43.9772 40.526 43.7371 40.4222C43.497 40.3183 43.2812 40.1657 43.1033 39.9739C41.1029 37.7919 38.6714 36.0489 35.9627 34.8551C33.254 33.6613 30.3269 33.0427 27.3668 33.0385H25.6329C20.1152 33.0266 14.8093 35.1624 10.8387 38.9939C10.4718 39.2966 10.0041 39.4494 9.52925 39.4216C9.05442 39.3939 8.60765 39.1876 8.27855 38.8442C7.94946 38.5008 7.76238 38.0457 7.75485 37.5701C7.74731 37.0945 7.91988 36.6337 8.23793 36.28C12.904 31.77 19.1435 29.2553 25.6329 29.2692H27.3668C30.8462 29.2771 34.2864 30.0044 37.4713 31.4055C40.6561 32.8066 43.5168 34.8512 45.8737 37.4108C46.1227 37.6793 46.2881 38.0145 46.3497 38.3755C46.4112 38.7364 46.3663 39.1075 46.2204 39.4434C46.0744 39.7793 45.8338 40.0653 45.5279 40.2666C45.222 40.4679 44.8641 40.5758 44.4979 40.5769Z" fill="white"/>
</g>
<defs>
<filter id="filter0_d_110_274" x="0" y="0" width="53" height="53" filterUnits="userSpaceOnUse" color-interpolation-filters="sRGB">
<feFlood flood-opacity="0" result="BackgroundImageFix"/>
<feColorMatrix in="SourceAlpha" type="matrix" values="0 0 0 0 0 0 0 0 0 0 0 0 0 0 0 0 0 0 127 0" result="hardAlpha"/>
<feOffset dy="1"/>
<feGaussianBlur stdDeviation="1"/>
<feComposite in2="hardAlpha" operator="out"/>
<feColorMatrix type="matrix" values="0 0 0 0 0 0 0 0 0 0 0 0 0 0 0 0 0 0 0.25 0"/>
<feBlend mode="normal" in2="BackgroundImageFix" result="effect1_dropShadow_110_274"/>
<feBlend mode="normal" in="SourceGraphic" in2="effect1_dropShadow_110_274" result="shape"/>
</filter>
</defs>
</svg>
